<?xml version="1.0" encoding="iso-8859-1"?>
<!-- Generator: Adobe Illustrator 18.0.0, SVG Export Plug-In . SVG Version: 6.00 Build 0)  -->
<!DOCTYPE svg PUBLIC "-//W3C//DTD SVG 1.1//EN" "http://www.w3.org/Graphics/SVG/1.1/DTD/svg11.dtd">
<svg version="1.1" id="Capa_1" xmlns="http://www.w3.org/2000/svg" xmlns:xlink="http://www.w3.org/1999/xlink" x="0px" y="0px"
	 viewBox="0 0 58 58" style="enable-background:new 0 0 58 58;" xml:space="preserve">
<g>
	<path d="M56.126,34.724l-2.85-2.85c-1.128-1.127-3.092-1.127-4.221,0L33.664,47.265l-2.121,7.779l-0.519,0.519
		c-0.388,0.388-0.389,1.014-0.006,1.405l-0.005,0.02l0.019-0.005c0.194,0.19,0.446,0.288,0.699,0.288
		c0.256,0,0.512-0.098,0.707-0.293l0.52-0.52l7.778-2.121l15.39-15.391C57.29,37.781,57.29,35.888,56.126,34.724z M35.974,47.784
		l10.243-10.242l4.243,4.242L40.217,52.027L35.974,47.784z M35.071,49.71l3.22,3.22l-4.428,1.208L35.071,49.71z M54.712,37.531
		l-2.839,2.839l-4.243-4.242l2.839-2.839c0.373-0.373,1.022-0.372,1.394-0.001l2.85,2.85C55.096,36.521,55.096,37.147,54.712,37.531
		z"/>
	<path d="M18.001,8h9c0.552,0,1-0.447,1-1V1c0-0.553-0.448-1-1-1h-9c-0.552,0-1,0.447-1,1v6C17.001,7.553,17.448,8,18.001,8z"/>
	<path d="M11.001,11h23c0.552,0,1-0.447,1-1V4c0-0.553-0.448-1-1-1h-4c-0.552,0-1,0.447-1,1v5h-13V4c0-0.553-0.448-1-1-1h-4
		c-0.552,0-1,0.447-1,1v6C10.001,10.553,10.448,11,11.001,11z"/>
	<path d="M44.001,32.687V7c0-0.553-0.448-1-1-1h-6c-0.552,0-1,0.447-1,1v5h-27V7c0-0.553-0.448-1-1-1h-6c-0.552,0-1,0.447-1,1v50
		c0,0.553,0.448,1,1,1h25.627l3.352-12.293L44.001,32.687z M8.001,16h13c0.552,0,1,0.447,1,1s-0.448,1-1,1h-13c-0.552,0-1-0.447-1-1
		S7.448,16,8.001,16z M8.001,22h29c0.552,0,1,0.447,1,1s-0.448,1-1,1h-29c-0.552,0-1-0.447-1-1S7.448,22,8.001,22z M8.001,28h14
		c0.552,0,1,0.447,1,1s-0.448,1-1,1h-14c-0.552,0-1-0.447-1-1S7.448,28,8.001,28z M8.001,34h24c0.552,0,1,0.447,1,1s-0.448,1-1,1
		h-24c-0.552,0-1-0.447-1-1S7.448,34,8.001,34z M21.001,48h-13c-0.552,0-1-0.447-1-1s0.448-1,1-1h13c0.552,0,1,0.447,1,1
		S21.553,48,21.001,48z M27.001,42h-19c-0.552,0-1-0.447-1-1s0.448-1,1-1h19c0.552,0,1,0.447,1,1S27.553,42,27.001,42z"/>
</g>
<g>
</g>
<g>
</g>
<g>
</g>
<g>
</g>
<g>
</g>
<g>
</g>
<g>
</g>
<g>
</g>
<g>
</g>
<g>
</g>
<g>
</g>
<g>
</g>
<g>
</g>
<g>
</g>
<g>
</g>
</svg>
